<svg width="16" height="16" viewBox="0 0 16 16" fill="none" xmlns="http://www.w3.org/2000/svg">
<path d="M9.44164 6.68478C9.23177 5.12185 8.66076 4 7.99707 4C7.39304 4 6.86943 4.92689 6.62281 6.26981C7.09528 6.2778 7.56295 6.37369 7.98003 6.56492C7.98855 6.56865 7.99228 6.57664 7.99281 6.58516C7.99281 6.59688 7.98535 6.60914 7.9715 6.60914C7.70784 6.61766 7.44417 6.62991 7.18104 6.64802C6.97277 6.66294 6.76343 6.68371 6.55463 6.71035C6.32665 6.73965 6.10027 6.7764 5.87762 6.82275C5.78494 6.84086 5.69172 6.86057 5.59957 6.88188C4.628 7.15195 4 7.58024 4 8.05913C4 8.68345 5.06905 9.21934 6.57381 9.43082C6.79379 10.933 7.34936 12 7.99707 12C8.58619 12 9.1018 11.1173 9.35695 9.82767C8.83121 9.83726 8.30548 9.73925 7.841 9.52617C7.8181 9.51551 7.79519 9.50539 7.77282 9.49421C7.75258 9.48409 7.75897 9.44999 7.78294 9.45053C8.04714 9.44893 8.31027 9.4436 8.57394 9.43295C8.85998 9.42016 9.14974 9.39672 9.43578 9.3605C9.58546 9.34132 9.7346 9.31948 9.88162 9.29285C10.3125 9.22094 10.7413 9.11813 11.143 8.945C11.29 8.88108 11.4354 8.80863 11.5701 8.7202C11.8445 8.52151 12 8.29671 12 8.05913C12 7.43694 10.9384 6.89945 9.44164 6.68478Z" fill="white"/>
</svg>
