<svg width="58" height="58" viewBox="0 0 58 58" fill="none" xmlns="http://www.w3.org/2000/svg">
<path d="M14.2794 39.9035C12.8333 39.9035 11.6611 38.6238 11.6611 37.045C11.6611 35.4662 12.8333 34.1864 14.2794 34.1864H15.6204V39.9034H14.2794V39.9035Z" fill="url(#paint0_linear_43_11104)"/>
<path d="M15.6202 39.9037C17.0662 39.9037 18.2385 38.6238 18.2385 37.0451C18.2385 35.4663 17.0662 34.1865 15.6202 34.1865C14.1742 34.1865 13.002 35.4663 13.002 37.0451C13.002 38.6238 14.1742 39.9037 15.6202 39.9037Z" fill="url(#paint1_linear_43_11104)"/>
<path opacity="0.8" d="M15.6204 38.16C16.1841 38.16 16.6412 37.661 16.6412 37.0455C16.6412 36.43 16.1841 35.931 15.6204 35.931C15.0566 35.931 14.5996 36.43 14.5996 37.0455C14.5996 37.661 15.0566 38.16 15.6204 38.16Z" fill="#263852"/>
<path d="M34.3731 39.9035C32.9271 39.9035 31.7549 38.6238 31.7549 37.045C31.7549 35.4662 32.9271 34.1864 34.3731 34.1864H35.7142V39.9034H34.3731V39.9035Z" fill="url(#paint2_linear_43_11104)"/>
<path d="M35.7149 39.9035C37.1609 39.9035 38.3332 38.6237 38.3332 37.045C38.3332 35.4662 37.1609 34.1864 35.7149 34.1864C34.2689 34.1864 33.0967 35.4662 33.0967 37.045C33.0967 38.6237 34.2689 39.9035 35.7149 39.9035Z" fill="url(#paint3_linear_43_11104)"/>
<path opacity="0.8" d="M35.7141 38.16C36.2779 38.16 36.7349 37.661 36.7349 37.0455C36.7349 36.43 36.2779 35.931 35.7141 35.931C35.1504 35.931 34.6934 36.43 34.6934 37.0455C34.6934 37.661 35.1504 38.16 35.7141 38.16Z" fill="#2C3F59"/>
<path d="M31.2838 32.5389H20.6369C19.7499 32.5389 19.0308 31.9075 19.0308 31.1286V18.7689C19.0308 17.9901 19.7499 17.3586 20.6369 17.3586H31.0251L30.3254 18.5925L31.2838 31.5442V32.5389Z" fill="url(#paint4_linear_43_11104)"/>
<path d="M45.8285 17.3586H30.9988C30.2152 17.3586 29.5801 17.99 29.5801 18.7688V31.1272C29.5801 31.906 30.2152 32.5373 30.9988 32.5373H45.8285C46.612 32.5373 47.2472 31.906 47.2472 31.1272V18.7688C47.2472 17.99 46.612 17.3586 45.8285 17.3586Z" fill="url(#paint5_linear_43_11104)"/>
<path d="M9.69189 36.6014V28.2669C9.69189 28.1166 9.71751 27.9675 9.76754 27.8256C9.76754 27.8256 11.6 23.6579 11.7994 23.0928C11.9989 22.5277 12.5357 22.1494 13.1382 22.1494H24.4567L21.0105 28.0397V36.6013L9.69189 36.6014Z" fill="url(#paint6_linear_43_11104)"/>
<path d="M22.33 36.6156H10.1757C9.60056 36.6156 9.22852 36.1949 9.22852 35.6762C9.22852 35.1573 9.60056 34.7368 10.1757 34.7368H20.6646L22.33 36.6156Z" fill="#DEDDDF"/>
<path d="M21.6237 36.5971H46.3128C47.0963 36.5971 47.7315 35.9658 47.7315 35.187V33.9482C47.7315 33.1694 47.0963 32.538 46.3128 32.538H28.9839C28.2004 32.538 27.5652 31.9067 27.5652 31.1279V23.5554C27.5652 22.7766 26.9301 22.1453 26.1466 22.1453H23.6513C23.0487 22.1453 22.512 22.5236 22.3126 23.0887L20.2807 27.8215C20.2306 27.9633 20.205 28.1125 20.205 28.2627V35.187C20.205 35.9658 20.8402 36.5971 21.6237 36.5971Z" fill="#CDCDCD"/>
<path d="M26.658 27.5537V23.3929C26.658 23.1592 26.4674 22.9697 26.2323 22.9697L23.7437 22.9697C23.563 22.9697 23.402 23.0832 23.3421 23.2527L21.623 27.4136C21.5259 27.6887 21.7313 27.9767 22.0247 27.9767H26.2323C26.4674 27.9767 26.658 27.7874 26.658 27.5537Z" fill="url(#paint7_linear_43_11104)"/>
<path d="M10.9491 27.4376L12.6227 23.2525C12.6826 23.0829 12.8436 22.9695 13.0244 22.9695L20.7973 22.9695C21.0907 22.9695 21.2961 23.2574 21.199 23.5326L19.2579 27.7177C19.1981 27.8873 19.037 28.0007 18.8562 28.0007H11.3508C11.0575 28.0007 10.852 27.7128 10.9491 27.4376Z" fill="url(#paint8_linear_43_11104)"/>
<path d="M41.296 39.9035C39.8499 39.9035 38.6777 38.6238 38.6777 37.045C38.6777 35.4662 39.8499 34.1864 41.296 34.1864H42.637V39.9034H41.296V39.9035Z" fill="url(#paint9_linear_43_11104)"/>
<path d="M42.6363 39.9035C44.0823 39.9035 45.2546 38.6237 45.2546 37.045C45.2546 35.4662 44.0823 34.1864 42.6363 34.1864C41.1903 34.1864 40.0181 35.4662 40.0181 37.045C40.0181 38.6237 41.1903 39.9035 42.6363 39.9035Z" fill="url(#paint10_linear_43_11104)"/>
<path opacity="0.8" d="M42.6365 38.16C43.2003 38.16 43.6573 37.661 43.6573 37.0455C43.6573 36.43 43.2003 35.931 42.6365 35.931C42.0727 35.931 41.6157 36.43 41.6157 37.0455C41.6157 37.661 42.0727 38.16 42.6365 38.16Z" fill="white"/>
<path d="M23.5083 35.6761C23.5083 35.1573 23.0877 34.7367 22.5689 34.7367H20.2094V36.6154H22.5689C23.0877 36.6154 23.5083 36.1949 23.5083 35.6761Z" fill="url(#paint11_linear_43_11104)"/>
<path d="M12.2192 31.9617C12.2192 31.5372 11.8751 31.1931 11.4507 31.1931H9.94598C9.5215 31.1931 9.1774 31.5372 9.1774 31.9617C9.1774 32.3862 9.5215 32.7303 9.94598 32.7303H11.4507C11.8751 32.7303 12.2192 32.3862 12.2192 31.9617Z" fill="url(#paint12_linear_43_11104)"/>
<path d="M24.4141 39.9033C22.9681 39.9033 21.7959 38.6235 21.7959 37.0447C21.7959 35.4659 22.9681 34.1862 24.4141 34.1862H25.7552V39.9031H24.4141V39.9033Z" fill="url(#paint13_linear_43_11104)"/>
<path d="M25.7555 39.9033C27.2015 39.9033 28.3737 38.6235 28.3737 37.0447C28.3737 35.466 27.2015 34.1862 25.7555 34.1862C24.3094 34.1862 23.1372 35.466 23.1372 37.0447C23.1372 38.6235 24.3094 39.9033 25.7555 39.9033Z" fill="url(#paint14_linear_43_11104)"/>
<path opacity="0.8" d="M25.7551 38.1597C26.3189 38.1597 26.7759 37.6607 26.7759 37.0452C26.7759 36.4297 26.3189 35.9308 25.7551 35.9308C25.1914 35.9308 24.7344 36.4297 24.7344 37.0452C24.7344 37.6607 25.1914 38.1597 25.7551 38.1597Z" fill="white"/>
<path d="M16.3657 31.9617C16.3657 31.5372 16.7098 31.1931 17.1343 31.1931H20.4358V32.7303H17.1343C16.7098 32.7303 16.3657 32.3862 16.3657 31.9617Z" fill="url(#paint15_linear_43_11104)"/>
<path d="M21.7471 31.9617C21.7471 31.5372 21.403 31.1931 20.9785 31.1931H20.2047V32.7303H20.9785C21.403 32.7303 21.7471 32.3862 21.7471 31.9617Z" fill="#314661"/>
<circle cx="43.4996" cy="36.2501" r="8.28572" fill="#126BDF"/>
<path d="M43.5004 39.3571V33.1428M43.5004 33.1428L40.9111 36.25M43.5004 33.1428L46.0897 36.25" stroke="white" stroke-width="1.55357" stroke-linecap="round"/>
<defs>
<linearGradient id="paint0_linear_43_11104" x1="12.0697" y1="35.4268" x2="15.6103" y2="39.9115" gradientUnits="userSpaceOnUse">
<stop stop-color="#677D99"/>
<stop offset="1" stop-color="#405674"/>
</linearGradient>
<linearGradient id="paint1_linear_43_11104" x1="14.8495" y1="34.8867" x2="17.9699" y2="39.0585" gradientUnits="userSpaceOnUse">
<stop stop-color="#566B89"/>
<stop offset="1" stop-color="#32445C"/>
</linearGradient>
<linearGradient id="paint2_linear_43_11104" x1="32.1634" y1="35.4268" x2="35.7041" y2="39.9115" gradientUnits="userSpaceOnUse">
<stop stop-color="#677D99"/>
<stop offset="1" stop-color="#405674"/>
</linearGradient>
<linearGradient id="paint3_linear_43_11104" x1="34.9442" y1="34.8866" x2="38.0647" y2="39.0583" gradientUnits="userSpaceOnUse">
<stop stop-color="#566B89"/>
<stop offset="1" stop-color="#32445C"/>
</linearGradient>
<linearGradient id="paint4_linear_43_11104" x1="19.4533" y1="18.2843" x2="30.2244" y2="18.686" gradientUnits="userSpaceOnUse">
<stop stop-color="#D5EBFC"/>
<stop offset="1" stop-color="#A0B7C9"/>
</linearGradient>
<linearGradient id="paint5_linear_43_11104" x1="29.9321" y1="15.9503" x2="39.8955" y2="25.3088" gradientUnits="userSpaceOnUse">
<stop stop-color="#D6EEFF"/>
<stop offset="1" stop-color="#C4D0DB"/>
</linearGradient>
<linearGradient id="paint6_linear_43_11104" x1="12.0608" y1="25.285" x2="19.9897" y2="39.1551" gradientUnits="userSpaceOnUse">
<stop stop-color="#EFEFEF"/>
<stop offset="1" stop-color="white"/>
</linearGradient>
<linearGradient id="paint7_linear_43_11104" x1="21.1207" y1="22.8171" x2="26.9818" y2="24.6541" gradientUnits="userSpaceOnUse">
<stop stop-color="#98999D"/>
<stop offset="1" stop-color="#B1B4BD"/>
</linearGradient>
<linearGradient id="paint8_linear_43_11104" x1="12.1488" y1="26.8379" x2="20.8885" y2="26.322" gradientUnits="userSpaceOnUse">
<stop stop-color="#E4E5E5"/>
<stop offset="1" stop-color="#D3D3D3"/>
</linearGradient>
<linearGradient id="paint9_linear_43_11104" x1="39.0863" y1="35.4268" x2="42.6269" y2="39.9115" gradientUnits="userSpaceOnUse">
<stop stop-color="#677D99"/>
<stop offset="1" stop-color="#405674"/>
</linearGradient>
<linearGradient id="paint10_linear_43_11104" x1="41.8656" y1="34.8866" x2="44.986" y2="39.0583" gradientUnits="userSpaceOnUse">
<stop stop-color="#566B89"/>
<stop offset="1" stop-color="#32445C"/>
</linearGradient>
<linearGradient id="paint11_linear_43_11104" x1="23.5083" y1="34.6794" x2="20.4347" y2="36.209" gradientUnits="userSpaceOnUse">
<stop stop-color="#B1B4BD"/>
<stop offset="1" stop-color="#98999D"/>
</linearGradient>
<linearGradient id="paint12_linear_43_11104" x1="12.6019" y1="31.2868" x2="9.92265" y2="32.6611" gradientUnits="userSpaceOnUse">
<stop stop-color="#41556E"/>
<stop offset="1" stop-color="#5C718E"/>
</linearGradient>
<linearGradient id="paint13_linear_43_11104" x1="22.2045" y1="35.4266" x2="25.7451" y2="39.9113" gradientUnits="userSpaceOnUse">
<stop stop-color="#677D99"/>
<stop offset="1" stop-color="#405674"/>
</linearGradient>
<linearGradient id="paint14_linear_43_11104" x1="24.9847" y1="34.8863" x2="28.1052" y2="39.0581" gradientUnits="userSpaceOnUse">
<stop stop-color="#566B89"/>
<stop offset="1" stop-color="#32445C"/>
</linearGradient>
<linearGradient id="paint15_linear_43_11104" x1="16.9611" y1="31.2868" x2="20.0869" y2="33.5315" gradientUnits="userSpaceOnUse">
<stop stop-color="#647A97"/>
<stop offset="1" stop-color="#364961"/>
</linearGradient>
</defs>
</svg>
