<svg width="58" height="58" viewBox="0 0 58 58" fill="none" xmlns="http://www.w3.org/2000/svg">
<path d="M18.6719 42.9821C17.8807 42.9821 17.2034 42.7117 16.64 42.1708C16.0766 41.63 15.7949 40.9798 15.7949 40.2202V20.8869C15.7949 20.1274 16.0766 19.4772 16.64 18.9363C17.2034 18.3954 17.8807 18.125 18.6719 18.125H38.8108C39.602 18.125 40.2793 18.3954 40.8427 18.9363C41.4061 19.4772 41.6878 20.1274 41.6878 20.8869V40.2202C41.6878 40.9798 41.4061 41.63 40.8427 42.1708C40.2793 42.7117 39.602 42.9821 38.8108 42.9821H18.6719Z" fill="url(#paint0_linear_43_11152)"/>
<path d="M15.5645 39.8752C14.7733 39.8752 14.096 39.6048 13.5326 39.0639C12.9692 38.523 12.6875 37.8728 12.6875 37.1133V17.78C12.6875 17.0204 12.9692 16.3702 13.5326 15.8294C14.096 15.2885 14.7733 15.0181 15.5645 15.0181H35.7034C36.4945 15.0181 37.1718 15.2885 37.7352 15.8294C38.2987 16.3702 38.5804 17.0204 38.5804 17.78V37.1133C38.5804 37.8728 38.2987 38.523 37.7352 39.0639C37.1718 39.6048 36.4945 39.8752 35.7034 39.8752H15.5645Z" fill="url(#paint1_linear_43_11152)"/>
<path d="M21.6689 33.1429C21.4223 33.1429 21.21 32.969 21.1612 32.7273L20.3189 28.5481C20.2702 28.3064 20.0578 28.1326 19.8112 28.1326H19.4192C19.1332 28.1326 18.9014 27.9007 18.9014 27.6147V27.3357C18.9014 27.062 19.1233 26.8401 19.397 26.8401C19.7051 26.8401 19.9385 26.562 19.8851 26.2586L19.1988 22.3576C19.143 22.0406 19.3869 21.75 19.7088 21.75H21.3829C21.6422 21.75 21.8615 21.9417 21.8961 22.1987L22.4611 26.3914C22.4958 26.6483 22.7151 26.8401 22.9744 26.8401H23.3095C23.5595 26.8401 23.7738 26.6615 23.8189 26.4157L24.5968 22.1744C24.6419 21.9286 24.8562 21.75 25.1062 21.75H27.1743C27.4257 21.75 27.6408 21.9305 27.6843 22.1781L28.4292 26.412C28.4728 26.6595 28.6878 26.8401 28.9392 26.8401H29.2381C29.4952 26.8401 29.7134 26.6514 29.7505 26.397L30.3643 22.193C30.4014 21.9386 30.6196 21.75 30.8767 21.75H32.5466C32.8716 21.75 33.1163 22.0458 33.0553 22.365L32.3184 26.2251C32.2574 26.5443 32.5021 26.8401 32.827 26.8401H32.8835C33.1695 26.8401 33.4014 27.0719 33.4014 27.3579V27.6147C33.4014 27.9007 33.1695 28.1326 32.8835 28.1326H32.3931C32.1479 28.1326 31.9364 28.3044 31.8862 28.5444L31.0105 32.731C30.9603 32.971 30.7488 33.1429 30.5036 33.1429H28.0329C27.7863 33.1429 27.574 32.969 27.5252 32.7273L26.6829 28.5481C26.6342 28.3064 26.4218 28.1326 26.1752 28.1326H26.0163C25.7684 28.1326 25.5552 28.3084 25.508 28.5518L24.6988 32.7236C24.6516 32.9671 24.4384 33.1429 24.1905 33.1429H21.6689ZM22.7766 28.4945C22.8228 28.8636 23.3542 28.8732 23.4137 28.506C23.4455 28.3102 23.2943 28.1326 23.096 28.1326C22.9023 28.1326 22.7525 28.3023 22.7766 28.4945ZM28.8052 28.485C28.8581 28.8373 29.368 28.8317 29.4131 28.4783C29.4365 28.2949 29.2936 28.1326 29.1087 28.1326C28.921 28.1326 28.7773 28.2995 28.8052 28.485ZM25.7648 26.4447C25.7326 26.6525 25.8934 26.8401 26.1037 26.8401C26.3141 26.8401 26.4748 26.6525 26.4427 26.4447C26.3827 26.0573 25.8248 26.0573 25.7648 26.4447Z" fill="url(#paint2_linear_43_11152)"/>
<circle cx="39.6158" cy="36.2501" r="8.28572" fill="#126BDF"/>
<path d="M39.6157 39.7455V33.1428M39.6157 33.1428L37.0264 36.25M39.6157 33.1428L42.2049 36.25" stroke="white" stroke-width="1.55357" stroke-linecap="round"/>
<defs>
<linearGradient id="paint0_linear_43_11152" x1="16.3108" y1="15.8186" x2="32.416" y2="29.3568" gradientUnits="userSpaceOnUse">
<stop stop-color="#EDF5FA"/>
<stop offset="0.586538" stop-color="#A8B2BC"/>
</linearGradient>
<linearGradient id="paint1_linear_43_11152" x1="13.2034" y1="12.7117" x2="29.3085" y2="26.2498" gradientUnits="userSpaceOnUse">
<stop stop-color="#EDF5FA"/>
<stop offset="0.966346" stop-color="#CDD7E1"/>
</linearGradient>
<linearGradient id="paint2_linear_43_11152" x1="28.4817" y1="23.8214" x2="18.6424" y2="33.1429" gradientUnits="userSpaceOnUse">
<stop stop-color="#4D545D"/>
<stop offset="1" stop-color="#A2B0C3"/>
</linearGradient>
</defs>
</svg>
