<svg width="58" height="58" viewBox="0 0 58 58" fill="none" xmlns="http://www.w3.org/2000/svg">
<path d="M21.4907 42.4642C20.7786 42.4642 20.169 42.2107 19.662 41.7036C19.1549 41.1965 18.9014 40.587 18.9014 39.8749V21.7499C18.9014 21.0379 19.1549 20.4283 19.662 19.9212C20.169 19.4142 20.7786 19.1606 21.4907 19.1606H39.6157C40.3277 19.1606 40.9373 19.4142 41.4443 19.9212C41.9514 20.4283 42.2049 21.0379 42.2049 21.7499V39.8749C42.2049 40.587 41.9514 41.1965 41.4443 41.7036C40.9373 42.2107 40.3277 42.4642 39.6157 42.4642H21.4907Z" fill="url(#paint0_linear_43_11165)"/>
<path d="M19.1606 39.8749C18.4485 39.8749 17.839 39.6213 17.3319 39.1143C16.8248 38.6072 16.5713 37.9976 16.5713 37.2856V19.1606C16.5713 18.4485 16.8248 17.839 17.3319 17.3319C17.839 16.8248 18.4485 16.5713 19.1606 16.5713H37.2856C37.9976 16.5713 38.6072 16.8248 39.1143 17.3319C39.6213 17.839 39.8749 18.4485 39.8749 19.1606V37.2856C39.8749 37.9976 39.6213 38.6072 39.1143 39.1143C38.6072 39.6213 37.9976 39.8749 37.2856 39.8749H19.1606Z" fill="url(#paint1_linear_43_11165)"/>
<circle cx="23.0451" cy="22.7858" r="2.07143" fill="#1DAC2C"/>
<path d="M26.1518 28.2231L32.3661 36.5089H19.9375L26.1518 28.2231Z" fill="#187621"/>
<path d="M30.2944 27.1875L37.2854 36.5089H24.0801L30.2944 27.1875Z" fill="#1BB32B"/>
<defs>
<linearGradient id="paint0_linear_43_11165" x1="19.3656" y1="16.9984" x2="34.3466" y2="29.0878" gradientUnits="userSpaceOnUse">
<stop stop-color="#EDF5FA"/>
<stop offset="0.586538" stop-color="#A8B2BC"/>
</linearGradient>
<linearGradient id="paint1_linear_43_11165" x1="17.0356" y1="14.409" x2="32.0165" y2="26.4985" gradientUnits="userSpaceOnUse">
<stop stop-color="#EDF5FA"/>
<stop offset="0.966346" stop-color="#CDD7E1"/>
</linearGradient>
</defs>
</svg>
